<?xml version="1.0" standalone="no"?>
<!DOCTYPE svg PUBLIC "-//W3C//DTD SVG 20010904//EN"
 "http://www.w3.org/TR/2001/REC-SVG-20010904/DTD/svg10.dtd">
<svg version="1.0" xmlns="http://www.w3.org/2000/svg"
 width="1000.000000pt" height="925.000000pt" viewBox="0 0 1000.000000 925.000000"
 preserveAspectRatio="xMidYMid meet">

<g transform="translate(0.000000,925.000000) scale(0.100000,-0.100000)"
fill="#000000" stroke="none">
<path d="M8336 9100 c-50 -44 -63 -90 -39 -138 21 -43 51 -51 106 -28 27 11
37 11 40 3 3 -7 10 0 16 16 13 34 31 35 31 3 0 -33 16 -42 29 -17 17 31 13
113 -6 141 -28 40 -45 49 -95 50 -39 0 -54 -6 -82 -30z"/>
<path d="M4877 9084 c-4 -4 -7 -78 -7 -165 0 -152 -1 -158 -22 -173 -12 -9
-27 -16 -33 -16 -6 0 -26 46 -44 103 -18 56 -37 106 -42 111 -4 5 -68 -26
-146 -72 -103 -60 -137 -85 -135 -97 2 -10 35 -114 73 -231 66 -204 83 -237
104 -204 3 6 11 10 17 10 6 0 6 -6 -2 -15 -7 -8 -15 -41 -19 -72 l-6 -57 -87
-50 c-93 -54 -91 -51 -65 -116 9 -24 10 -24 21 18 10 38 18 46 78 81 62 36 68
38 73 20 15 -46 124 -67 145 -29 6 12 9 28 6 38 -7 21 13 54 21 35 8 -21 22
-15 16 7 -3 11 4 30 16 46 25 31 27 61 6 91 -19 27 -78 47 -116 39 -16 -3 -29
-4 -29 -1 0 3 139 83 162 93 5 2 8 -80 8 -182 l0 -186 25 16 c25 16 25 18 25
154 0 137 0 138 26 155 14 9 30 13 34 8 4 -4 22 -52 40 -105 17 -54 34 -98 37
-98 12 0 283 163 283 170 0 14 -20 22 -20 8 0 -7 -52 -43 -115 -80 -100 -58
-116 -64 -124 -50 -11 22 -131 386 -131 398 0 8 46 36 197 121 l41 24 48 -148
c52 -159 52 -159 59 -151 6 5 -94 309 -106 322 -4 5 -61 -22 -132 -62 -68 -40
-127 -72 -130 -72 -4 0 -8 82 -9 182 -3 156 -5 183 -18 186 -9 1 -19 0 -23 -4z
m-82 -364 c36 -110 65 -206 65 -213 0 -10 -230 -152 -235 -145 -1 2 -33 95
-70 206 -47 143 -64 207 -57 214 9 9 222 137 229 138 1 0 32 -90 68 -200z m75
-77 c0 -48 -4 -83 -8 -77 -5 5 -17 38 -27 73 -18 62 -18 64 0 77 10 8 22 14
27 14 4 0 8 -39 8 -87z m80 -95 c21 -69 21 -73 4 -85 -10 -7 -21 -13 -26 -13
-4 0 -8 38 -8 85 0 47 2 85 4 85 2 0 14 -32 26 -72z"/>
<path d="M7982 8970 c-13 -5 -30 -26 -38 -47 -9 -20 -27 -45 -40 -55 -33 -26
-30 -38 9 -38 17 0 74 -7 126 -15 70 -12 97 -13 107 -4 11 9 14 8 14 -5 0 -23
37 -20 45 4 8 24 -52 121 -89 145 -29 19 -104 28 -134 15z"/>
<path d="M5813 8891 c-81 -37 -76 -81 12 -118 31 -12 45 -25 48 -41 4 -21 2
-23 -24 -20 -20 3 -29 0 -29 -9 0 -8 -7 -13 -17 -11 -10 2 -18 12 -17 23 0 11
-14 31 -30 45 -23 18 -26 19 -13 4 21 -25 22 -38 1 -30 -9 3 -12 2 -9 -5 4 -6
13 -8 21 -5 8 3 14 -1 14 -8 0 -7 7 -19 15 -26 13 -11 20 -11 40 0 13 7 35 10
49 6 13 -3 28 -2 31 4 9 14 35 13 35 -2 0 -6 -7 -19 -16 -29 -21 -23 -10 -39
27 -39 39 0 69 32 69 74 0 18 -9 45 -20 59 -11 14 -20 36 -20 49 0 33 -23 62
-64 82 -43 20 -51 20 -103 -3z"/>
<path d="M8427 8823 c-12 -20 -11 -106 1 -110 8 -3 12 6 12 25 0 16 3 44 6 61
6 28 -7 44 -19 24z"/>
<path d="M7430 8784 c-322 -51 -567 -159 -731 -323 -129 -129 -173 -239 -158
-391 6 -58 49 -180 64 -180 3 0 35 32 72 70 118 126 282 219 497 284 87 27
279 66 320 66 3 0 6 -196 6 -435 l0 -435 30 0 30 0 0 440 0 440 133 -1 c72 -1
161 -4 197 -8 l65 -7 -32 -15 c-17 -8 -45 -32 -62 -53 -51 -63 -54 -89 -41
-264 7 -86 15 -195 19 -242 l6 -85 42 -14 c36 -13 52 -13 110 -2 80 16 162 50
192 80 19 19 21 32 21 169 0 145 -21 327 -40 346 -6 6 -10 18 -10 29 0 21 22
19 114 -13 l51 -17 0 -44 c-1 -24 -3 -96 -5 -159 -2 -63 0 -199 5 -303 9 -212
0 -196 91 -156 37 15 43 22 49 59 4 23 6 104 5 179 -3 176 0 195 15 91 6 -47
18 -127 25 -177 8 -51 18 -93 24 -93 5 0 38 19 73 41 69 45 73 55 48 124 -11
31 -12 54 -5 100 5 33 10 81 11 108 2 26 6 47 11 47 10 0 107 -95 136 -134 21
-28 23 -28 36 -11 18 25 53 129 61 181 4 23 1 70 -5 105 -48 269 -349 491
-794 585 -105 22 -151 26 -351 30 -171 2 -254 -1 -325 -12z"/>
<path d="M5717 8644 c-9 -17 -21 -53 -28 -80 -7 -27 -27 -80 -46 -119 -18 -38
-33 -79 -33 -90 0 -31 28 -65 54 -65 21 0 24 -6 28 -52 3 -29 2 -64 -2 -79 -6
-21 -3 -35 15 -62 30 -43 88 -67 174 -72 l66 -4 11 -63 c7 -35 12 -84 13 -110
1 -47 1 -48 20 -29 10 10 24 20 30 22 8 3 14 38 17 94 5 75 2 96 -13 125 -10
19 -23 35 -30 35 -6 0 -15 4 -20 9 -4 5 -3 6 3 3 8 -4 10 8 7 41 -3 26 0 67 5
91 9 36 7 52 -9 93 -10 27 -19 66 -19 87 0 45 32 91 63 91 19 0 16 5 -18 40
-41 42 -55 49 -55 26 0 -8 -7 -17 -16 -20 -11 -4 -13 -12 -8 -28 6 -19 -9 -37
-102 -124 -60 -56 -111 -101 -113 -98 -2 2 1 9 7 16 13 17 33 289 23 325 l-8
28 -16 -31z m263 -568 c0 -2 -7 -7 -16 -10 -8 -3 -12 -2 -9 4 6 10 25 14 25 6z"/>
<path d="M5108 8137 c-32 -18 -58 -35 -58 -39 0 -16 47 -6 85 17 22 14 43 25
47 25 10 0 141 -399 135 -413 -4 -10 -216 -137 -230 -137 -4 0 -137 399 -137
413 0 3 24 19 52 36 l53 30 -35 -1 c-40 -1 -75 -20 -107 -57 -21 -26 -21 -26
-2 -47 21 -22 53 -123 52 -166 0 -15 5 -29 12 -31 6 -3 24 -49 41 -102 16 -54
34 -99 41 -102 8 -3 252 128 281 153 2 1 -29 104 -69 228 -54 164 -78 226 -89
226 -8 -1 -41 -15 -72 -33z"/>
<path d="M6483 7733 c3 -267 5 -294 22 -313 10 -11 23 -20 29 -20 7 0 20 -14
30 -31 30 -51 148 -161 224 -209 l71 -45 1 -507 c0 -432 2 -507 14 -502 8 3
29 -2 48 -11 23 -11 28 -12 16 -2 -17 13 -18 49 -18 502 0 460 1 487 18 480
172 -71 360 -123 504 -140 l57 -7 3 -101 c3 -93 5 -102 23 -105 11 -2 28 -11
38 -20 16 -14 17 -13 17 15 0 16 3 32 6 35 11 12 69 -13 100 -43 27 -27 37
-30 64 -24 32 7 33 6 27 -22 -10 -49 7 -60 36 -21 93 122 42 248 -100 248 -52
0 -104 -25 -123 -59 -19 -36 -30 -23 -30 34 l0 54 159 0 c240 0 406 24 606 88
100 32 258 103 309 139 11 8 24 14 28 14 4 0 9 -251 10 -557 l3 -558 25 0 25
0 3 580 2 581 64 65 c77 79 112 133 143 219 21 61 23 80 22 295 l0 230 -18
-51 c-71 -197 -296 -374 -601 -474 -689 -227 -1549 -33 -1807 407 -14 24 -32
63 -39 86 -13 37 -14 10 -11 -250z m87 -63 c0 -5 28 -39 61 -75 156 -166 443
-298 764 -351 169 -28 507 -26 678 5 151 26 340 85 450 139 53 26 80 35 83 27
3 -7 4 -45 2 -86 l-3 -74 -95 -47 c-437 -216 -1112 -218 -1566 -3 -164 77
-278 160 -355 258 -38 48 -39 50 -39 133 0 49 4 84 10 84 6 0 10 -4 10 -10z"/>
<path d="M6297 7904 c-4 -4 -7 -20 -7 -35 0 -19 6 -28 22 -32 34 -9 60 10 56
41 -2 22 -9 28 -33 30 -17 2 -34 0 -38 -4z"/>
<path d="M5623 7780 c0 -25 2 -35 4 -22 2 12 2 32 0 45 -2 12 -4 2 -4 -23z"/>
<path d="M6142 7799 c-12 -5 -25 -17 -29 -26 -4 -10 -18 -33 -31 -50 l-24 -33
24 0 c14 0 28 3 32 7 4 4 24 6 45 4 29 -2 40 2 45 15 8 20 -2 54 -15 54 -5 0
-13 8 -17 19 -5 14 -12 17 -30 10z"/>
<path d="M5993 7782 c-8 -5 -13 -53 -15 -149 -3 -132 -2 -140 15 -132 12 7 17
22 17 52 0 23 3 59 6 80 5 30 4 37 -10 37 -21 0 -20 17 4 68 11 22 20 44 20
47 0 7 -23 6 -37 -3z"/>
<path d="M6250 7628 c0 -28 7 -46 25 -63 24 -25 75 -34 75 -14 0 6 9 8 21 4
11 -4 31 -4 45 -1 32 8 32 47 -1 80 -21 21 -29 23 -56 16 -21 -6 -43 -5 -70 4
l-39 14 0 -40z"/>
<path d="M4535 7590 c-9 -15 -26 -259 -29 -415 -1 -71 -5 -135 -9 -141 -17
-27 -27 -218 -21 -387 l7 -179 26 -10 c21 -8 33 -6 61 11 57 33 122 62 128 56
3 -3 6 -40 6 -82 1 -73 3 -78 27 -92 24 -13 31 -13 80 11 30 14 67 29 83 32
16 4 41 20 57 35 48 48 17 96 -59 89 l-37 -3 3 75 c6 165 23 407 30 440 7 30
13 35 47 43 94 19 128 32 166 59 22 16 37 33 33 39 -4 6 -10 5 -17 -4 -17 -20
-104 -54 -161 -62 l-49 -8 6 58 c4 37 12 62 24 72 17 13 17 14 1 9 -16 -5 -18
4 -18 94 0 90 -2 103 -27 145 -24 40 -31 45 -53 40 -58 -14 -140 -17 -176 -5
-20 7 -56 30 -80 52 -26 24 -45 35 -49 28z m163 -655 c-7 -27 -12 -105 -12
-172 -1 -87 -4 -123 -13 -123 -6 0 -19 -3 -28 -6 -14 -6 -15 3 -10 77 9 127
24 257 37 324 l12 60 12 -55 c10 -42 10 -66 2 -105z"/>
<path d="M6090 7481 c0 -50 2 -53 33 -66 66 -27 117 4 117 72 0 40 -2 43 -19
33 -27 -14 -104 -13 -119 2 -9 9 -12 0 -12 -41z"/>
<path d="M6320 7341 c0 -51 27 -81 73 -81 53 0 77 24 77 76 0 42 -1 44 -21 33
-22 -11 -80 -8 -111 5 -16 7 -18 2 -18 -33z"/>
<path d="M5140 7199 c0 -5 5 -7 10 -4 6 3 10 8 10 11 0 2 -4 4 -10 4 -5 0 -10
-5 -10 -11z"/>
<path d="M5457 7150 c-51 -13 -84 -36 -95 -68 -12 -37 -5 -52 26 -52 22 0 24
-2 12 -11 -11 -8 -12 -12 -2 -16 6 -2 12 -13 12 -24 0 -21 26 -26 33 -6 3 9
11 9 35 0 19 -6 34 -7 38 -2 3 5 12 9 21 9 12 0 14 -7 10 -34 -6 -40 4 -47 47
-35 32 9 52 32 59 69 4 16 22 36 51 54 38 24 46 34 46 58 l0 30 -42 -35 -42
-35 -15 31 c-9 17 -27 39 -41 49 -31 22 -102 30 -153 18z m19 -157 c-8 -8 -36
5 -36 17 0 7 6 7 21 0 11 -7 18 -14 15 -17z m-49 -15 c-3 -7 -5 -2 -5 12 0 14
2 19 5 13 2 -7 2 -19 0 -25z"/>
<path d="M5940 6927 c0 -54 15 -77 51 -77 32 0 49 27 49 78 l0 27 -19 -24
c-22 -28 -51 -25 -68 9 -12 24 -13 24 -13 -13z"/>
<path d="M5660 6925 c0 -19 -66 -85 -85 -85 -9 0 -25 11 -37 25 -15 17 -30 24
-54 23 -20 -1 -42 6 -53 16 -18 17 -20 17 -29 -1 -5 -10 -19 -49 -32 -87 -22
-66 -22 -69 -4 -86 11 -10 31 -22 46 -25 23 -6 28 -3 39 29 7 20 15 36 19 36
16 -1 65 -163 75 -251 7 -54 8 -56 43 -65 45 -11 48 -28 5 -32 -30 -3 -31 -4
-19 -27 7 -13 24 -34 37 -45 l24 -21 -29 6 c-23 5 -27 4 -20 -7 6 -7 11 -23
12 -35 0 -12 8 -38 18 -58 16 -34 16 -41 0 -113 -9 -43 -21 -129 -26 -192 -19
-224 -61 -431 -97 -472 -8 -9 -44 -24 -79 -34 -36 -9 -67 -21 -70 -25 -9 -15
59 -49 97 -49 53 0 139 38 139 61 0 13 7 19 25 19 22 0 27 9 50 83 48 151 65
238 65 338 0 87 11 151 30 172 4 4 18 -8 31 -28 15 -22 32 -35 47 -35 29 0 28
-21 -3 -88 -32 -69 -32 -92 -2 -92 28 0 70 43 85 88 6 19 23 47 37 64 34 40
32 61 -13 106 -21 21 -55 68 -75 104 l-36 65 44 109 c39 97 44 116 39 168 -2
32 -11 73 -19 92 -14 34 -9 44 13 22 8 -8 19 -3 42 22 16 17 30 40 30 50 0 24
-215 239 -256 256 -42 18 -54 18 -54 -1z"/>
<path d="M3995 6842 c-16 -10 -45 -33 -62 -49 -39 -37 -44 -87 -13 -124 l19
-24 1 43 c0 31 4 42 15 42 24 0 67 -25 94 -54 25 -26 51 -34 51 -16 0 6 7 10
15 10 8 0 15 -8 15 -19 0 -10 12 -40 26 -66 l27 -47 -26 -25 c-18 -19 -39 -27
-75 -31 -61 -5 -92 10 -92 44 0 15 -11 39 -25 55 l-24 30 -14 -23 c-8 -13 -17
-53 -20 -89 -3 -36 -15 -89 -26 -118 -35 -87 -24 -127 38 -146 22 -7 23 -10
18 -74 -3 -36 -11 -100 -17 -141 -12 -76 -9 -290 4 -322 7 -15 10 -15 41 3 38
23 37 24 50 -56 11 -68 14 -73 38 -67 12 3 64 34 115 70 90 62 120 98 107 129
-4 12 -9 12 -27 -1 -48 -34 -50 -14 -4 33 l49 50 -5 59 c-4 42 -16 78 -39 120
-33 59 -33 61 -22 117 12 55 11 59 -18 118 -40 77 -36 128 11 170 20 18 38 26
48 22 12 -4 11 0 -5 17 -16 17 -22 39 -25 90 -3 49 -10 76 -26 97 -15 21 -22
44 -22 75 0 36 -6 52 -28 77 -24 27 -37 33 -83 36 -41 3 -61 0 -84 -15z"/>
<path d="M7373 6772 c-24 -15 -43 -35 -43 -44 0 -23 5 -23 57 7 27 17 43 33
43 45 0 25 -6 24 -57 -8z"/>
<path d="M2910 6767 c-19 -5 -183 -95 -365 -199 -181 -105 -456 -264 -610
-353 -154 -89 -370 -213 -479 -276 -205 -117 -264 -163 -309 -240 -57 -97 -56
-65 -50 -1185 3 -566 8 -1032 12 -1036 7 -8 420 -248 426 -248 3 0 6 474 7
1053 l3 1052 33 67 c56 114 92 143 362 299 244 141 449 259 1010 583 383 221
410 235 440 236 20 0 15 6 -30 31 -30 17 -125 72 -210 122 -85 49 -166 93
-180 97 -14 4 -41 3 -60 -3z m-1587 -1594 c63 -44 110 -123 115 -193 4 -49 1
-61 -17 -79 -75 -75 -261 83 -261 222 0 55 38 92 87 84 20 -4 54 -19 76 -34z
m-16 -530 c121 -70 133 -79 133 -105 0 -15 -3 -28 -7 -28 -3 0 -66 35 -140 77
-121 70 -133 79 -133 105 0 15 3 28 7 28 3 0 66 -35 140 -77z m0 -99 c124 -71
133 -78 133 -106 0 -16 -4 -28 -9 -26 -5 2 -68 37 -140 78 -118 67 -131 77
-131 102 0 16 3 28 7 28 4 0 67 -34 140 -76z m1 -99 c74 -42 82 -50 82 -77 0
-16 -4 -28 -9 -26 -5 2 -56 30 -115 63 -101 57 -106 61 -106 93 l0 34 33 -20
c17 -11 69 -41 115 -67z m47 -125 c71 -41 80 -49 83 -78 2 -18 1 -32 -1 -32
-2 0 -62 34 -132 75 -71 41 -132 75 -137 75 -4 0 -8 16 -8 36 l0 35 58 -32
c31 -18 93 -54 137 -79z"/>
<path d="M7193 6744 c-27 -16 -43 -33 -43 -45 0 -24 3 -24 56 7 28 16 44 33
44 45 0 24 -6 24 -57 -7z"/>
<path d="M7378 6698 c-47 -29 -48 -31 -48 -79 0 -27 3 -49 6 -49 3 0 25 12 50
26 43 26 44 27 44 80 0 30 -1 54 -2 53 -2 0 -24 -14 -50 -31z m40 -38 c-2 -22
-12 -37 -35 -51 l-33 -21 0 34 c0 25 6 37 28 50 39 23 44 22 40 -12z"/>
<path d="M7198 6670 c-47 -29 -48 -31 -48 -81 l0 -50 50 27 50 27 0 54 c0 29
-1 53 -2 53 -2 0 -24 -14 -50 -30z m42 -39 c0 -23 -8 -34 -36 -50 -45 -27 -44
-27 -44 8 0 22 8 34 33 49 43 27 47 27 47 -7z"/>
<path d="M7455 6525 c-62 -17 -156 -53 -173 -67 -7 -6 -12 -21 -10 -32 2 -17
13 -22 53 -28 28 -4 67 -9 87 -12 l38 -6 40 80 c43 86 43 86 -35 65z"/>
<path d="M6555 6451 c-46 -20 -69 -59 -73 -124 -2 -44 1 -68 11 -82 14 -18 13
-23 -1 -47 -10 -17 -25 -28 -39 -28 -12 0 -35 -11 -50 -24 -26 -23 -28 -29
-26 -98 1 -52 11 -98 32 -160 37 -106 39 -142 6 -200 -13 -24 -31 -71 -39
-103 -18 -72 -50 -398 -41 -425 10 -31 69 -76 132 -101 46 -18 79 -23 163 -23
58 -1 118 3 134 7 l29 8 -6 -53 c-4 -30 -9 -68 -13 -84 -5 -28 -1 -33 53 -71
161 -112 383 -192 634 -228 57 -8 107 -15 110 -15 4 0 10 -17 14 -37 15 -83
61 -130 115 -118 34 8 34 6 18 40 -14 31 3 58 24 37 9 -9 15 -5 28 16 10 16
33 36 51 45 33 16 34 16 45 -11 6 -15 8 -31 4 -37 -4 -5 -11 -25 -15 -43 -7
-34 -30 -52 -64 -52 -18 0 -20 -7 -23 -62 -3 -57 -5 -63 -26 -66 -29 -4 -66
28 -93 81 -11 20 -25 37 -31 37 -6 0 -50 -39 -97 -88 -74 -75 -94 -103 -144
-202 -43 -86 -60 -133 -68 -187 -6 -40 -15 -73 -19 -73 -5 0 -165 91 -357 201
-336 194 -810 468 -825 476 -5 2 -15 0 -24 -5 -21 -12 -40 0 321 -207 461
-266 548 -314 558 -308 5 3 7 2 4 -4 -3 -5 64 -49 150 -99 86 -49 162 -95 169
-102 11 -10 13 -63 8 -258 -5 -245 -5 -245 16 -234 19 10 20 19 20 215 0 171
2 203 14 199 11 -4 19 17 35 83 11 48 23 107 27 129 5 33 18 53 60 95 29 29
56 50 59 47 4 -3 9 -40 12 -82 4 -55 1 -92 -11 -135 -19 -68 -19 -70 33 -211
l39 -103 -34 -71 c-49 -105 -73 -140 -106 -159 -34 -19 -32 -40 7 -93 13 -16
31 -48 39 -69 22 -52 44 -75 73 -75 35 0 37 22 9 79 -37 71 -34 101 15 166 23
30 45 55 49 55 16 0 22 -38 30 -175 7 -120 13 -156 45 -255 20 -63 43 -120 51
-126 8 -6 14 -20 14 -31 0 -23 63 -52 128 -60 38 -4 106 23 104 42 0 5 -29 18
-64 28 -119 35 -113 17 -160 547 -16 182 -15 204 15 286 25 72 35 166 36 350
l1 80 42 3 c22 1 49 6 59 12 15 8 27 -2 70 -53 28 -35 55 -64 59 -66 3 -1 14
5 22 15 15 17 12 26 -40 130 l-55 113 35 87 c41 101 61 186 57 244 l-3 41 110
28 c175 44 412 148 434 190 4 8 10 42 13 75 4 39 3 52 -3 39 -12 -30 -20 -33
-92 -43 -35 -5 -101 -19 -147 -31 -101 -27 -140 -23 -241 26 -40 19 -80 32
-89 30 -11 -4 -21 5 -32 26 -17 35 -47 54 -35 22 4 -10 4 -15 0 -12 -9 9 -64
-103 -57 -116 3 -6 3 -8 -2 -4 -4 4 -21 0 -37 -8 -18 -9 -40 -13 -55 -9 -38 9
-73 50 -73 84 l0 30 -30 -17 c-27 -16 -30 -21 -30 -72 0 -62 -17 -131 -34
-142 -30 -20 -31 -11 -10 138 l6 42 -94 7 c-221 16 -406 58 -580 131 l-108 46
0 83 0 84 63 -29 c172 -78 403 -136 586 -147 l97 -6 13 31 c9 21 11 51 6 95
-8 71 8 117 46 138 27 14 32 8 19 -25 -15 -40 -12 -111 5 -154 15 -36 91 -122
107 -122 13 0 9 140 -6 205 -16 70 -18 122 -6 130 5 3 18 0 29 -7 18 -11 25
-9 53 19 36 35 84 57 100 47 6 -4 8 -31 6 -65 -3 -44 -10 -65 -28 -84 l-24
-25 25 -17 c13 -9 48 -40 77 -70 l53 -53 60 15 c88 23 194 63 271 101 37 19
70 34 73 34 3 0 5 -37 3 -82 l-3 -82 -55 -28 c-30 -15 -88 -41 -128 -57 -90
-35 -77 -43 56 -34 67 4 109 12 135 26 28 14 49 18 81 14 39 -6 43 -4 52 21
20 50 105 172 121 172 10 0 14 6 11 18 -3 10 0 26 7 36 15 20 9 52 -11 60 -20
8 -18 -21 2 -32 15 -8 15 -11 -5 -31 -11 -11 -21 -24 -21 -28 0 -11 -93 -143
-101 -143 -4 0 -5 8 -3 18 4 17 74 550 74 565 0 4 10 11 22 16 17 6 33 2 60
-15 21 -13 40 -24 43 -24 3 0 5 32 5 72 0 63 4 77 31 119 27 43 51 129 36 129
-3 0 -17 -21 -32 -46 -36 -61 -145 -170 -220 -221 -141 -95 -337 -173 -533
-213 l-102 -20 -36 32 c-51 47 -73 57 -125 58 -58 0 -110 -32 -124 -78 l-9
-32 -78 0 c-251 0 -562 73 -773 180 -89 45 -100 49 -115 35 -47 -42 -77 -3
-106 138 -38 181 -30 266 27 267 20 1 -100 68 -133 76 -34 7 -37 34 -5 34 26
0 83 55 89 85 2 11 10 20 18 20 8 0 18 15 23 37 10 42 -10 95 -43 115 -26 17
-91 25 -115 14z m1198 -1706 c-3 -9 -8 -14 -10 -11 -3 3 -2 9 2 15 9 16 15 13
8 -4z m64 -21 c-3 -3 -12 -4 -19 -1 -8 3 -5 6 6 6 11 1 17 -2 13 -5z m48 -14
c3 -6 -1 -7 -9 -4 -18 7 -21 14 -7 14 6 0 13 -4 16 -10z"/>
<path d="M3175 6352 l-170 -98 -1 -85 c-1 -46 -2 -91 -3 -99 0 -9 -17 -24 -36
-34 l-35 -19 0 -153 0 -152 -45 -26 c-42 -25 -45 -30 -45 -69 0 -48 16 -34
-173 -143 l-108 -62 93 -55 c51 -30 220 -127 376 -216 247 -142 282 -166 282
-187 0 -13 -5 -24 -12 -24 -9 0 -132 68 -255 142 l-33 20 0 -254 0 -254 130
-75 c143 -82 141 -80 120 -174 -22 -99 -138 -546 -142 -550 -8 -9 -278 155
-278 168 1 7 7 38 14 70 8 31 13 57 11 57 -2 0 -20 -9 -39 -21 -23 -13 -36
-17 -36 -9 0 7 -6 10 -14 7 -25 -10 -27 6 -4 30 20 22 22 34 23 128 0 57 -3
107 -8 111 -4 4 -19 -3 -33 -17 -24 -22 -33 -24 -135 -24 -98 0 -109 -2 -109
-18 0 -24 -28 -77 -40 -77 -6 0 -10 -9 -10 -20 0 -13 -7 -20 -19 -20 -16 0
-20 -11 -26 -77 -4 -43 -9 -141 -10 -218 -1 -77 -8 -153 -14 -168 -7 -18 -11
-100 -11 -216 l0 -187 -40 -24 c-39 -24 -58 -58 -45 -79 3 -6 24 -14 46 -17
l39 -7 0 -81 -1 -81 -28 34 c-18 23 -30 30 -33 21 -7 -23 -55 -3 -103 43 -43
42 -44 42 -50 19 -8 -34 2 -57 31 -71 14 -6 43 -25 64 -42 23 -18 54 -33 79
-36 l41 -6 0 -107 0 -108 219 -126 c120 -69 222 -126 226 -126 4 0 5 206 4
458 l-4 457 32 66 c53 113 80 134 523 389 222 128 425 242 451 254 l48 21
-104 60 c-122 70 -116 52 -85 244 21 126 19 233 -3 276 -6 11 -29 64 -52 118
l-40 98 -66 3 c-111 4 -189 64 -228 177 -33 96 -62 239 -64 315 -1 40 -3 74
-5 74 -2 0 -30 -16 -63 -35 l-59 -34 0 83 c0 83 0 84 34 114 37 32 73 48 84
37 4 -3 7 -25 8 -48 0 -23 1 -55 2 -72 l2 -30 20 33 c26 42 62 56 107 41 25
-8 38 -8 46 0 8 8 16 6 28 -5 23 -21 91 -29 119 -14 18 10 21 17 16 45 -7 37
7 54 29 35 13 -10 15 -8 15 12 0 13 9 41 19 61 22 43 19 66 -15 98 -28 26
-110 37 -143 20 l-21 -12 -1 218 c-1 281 -8 371 -34 389 -39 29 -76 17 -250
-84z m-45 -362 c0 -12 -70 -60 -88 -60 -24 0 -7 24 34 47 43 25 54 28 54 13z
m15 -164 l0 -79 -62 -39 -63 -38 0 83 c0 78 2 85 28 109 35 33 63 48 82 45 12
-2 15 -19 15 -81z m-144 -43 c-1 -42 -4 -79 -7 -82 -2 -3 -11 2 -18 10 -16 16
-27 127 -14 135 4 3 8 -3 9 -13 0 -12 4 -8 11 10 15 43 21 26 19 -60z m219
-33 c0 -11 -74 -60 -90 -60 -21 0 -9 20 27 45 39 26 63 32 63 15z m-170 -110
c0 -12 -70 -60 -87 -60 -25 0 -12 19 30 44 46 28 57 31 57 16z m40 -95 c0 -70
-3 -83 -15 -79 -11 5 -13 -1 -9 -28 6 -42 2 -47 -68 -87 l-58 -32 0 84 c0 85
0 85 35 116 23 20 46 31 65 31 25 0 30 4 30 24 0 25 9 56 16 56 2 0 4 -38 4
-85z m-170 -116 l0 -91 -22 14 c-20 13 -23 25 -25 84 0 38 1 61 4 52 7 -26 20
-22 27 7 11 45 16 26 16 -66z m563 -934 c4 -8 2 -17 -3 -20 -6 -4 -10 3 -10
14 0 25 6 27 13 6z m134 -89 c-8 -20 -84 -59 -92 -46 -6 9 86 73 94 65 2 -2 1
-11 -2 -19z m21 -161 l2 -80 -56 -32 c-30 -18 -60 -33 -65 -33 -5 0 -9 34 -9
76 0 76 0 77 40 116 27 28 46 39 62 36 22 -3 23 -8 26 -83z m-138 -40 c0 -47
-3 -85 -6 -85 -3 0 -14 5 -25 10 -16 9 -19 21 -18 78 0 42 3 60 8 47 7 -17 8
-17 15 8 13 54 26 26 26 -58z m-187 -229 c26 -15 47 -29 47 -31 0 -5 -182
-106 -185 -103 -3 3 30 151 40 176 4 12 9 12 28 0 12 -8 43 -27 70 -42z m-659
11 c41 -23 58 -47 34 -47 -18 0 -88 48 -88 60 0 15 11 12 54 -13z m-24 -77 c5
0 25 -14 45 -31 35 -31 35 -31 35 -116 l0 -84 -62 35 -63 35 -3 72 c-3 83 2
104 24 95 9 -3 20 -6 24 -6z m137 -62 c10 14 12 4 12 -50 1 -57 -2 -69 -18
-78 -11 -5 -22 -10 -25 -10 -3 0 -6 39 -5 88 1 76 2 84 13 60 10 -24 13 -25
23 -10z m-182 -477 c115 -52 193 -224 130 -286 -32 -33 -70 -32 -128 5 -138
87 -178 295 -57 299 8 0 33 -8 55 -18z"/>
<path d="M3077 5846 c-6 -16 2 -28 14 -20 12 7 11 34 0 34 -5 0 -11 -6 -14
-14z"/>
<path d="M2993 5495 c-3 -9 -3 -18 0 -21 9 -9 27 6 27 22 0 19 -19 18 -27 -1z"/>
<path d="M3576 4283 c-9 -9 -7 -33 3 -33 12 0 22 28 12 34 -5 3 -11 3 -15 -1z"/>
<path d="M2630 3856 c0 -15 18 -31 26 -23 7 7 -7 37 -17 37 -5 0 -9 -6 -9 -14z"/>
<path d="M7130 6339 c-54 -69 -76 -143 -60 -209 15 -64 64 -140 89 -140 18 0
141 -65 141 -75 0 -2 -20 -16 -45 -31 -28 -16 -45 -33 -45 -45 0 -24 -1 -24
51 5 29 17 52 23 70 19 18 -3 41 3 69 18 l41 23 42 -22 c23 -12 53 -31 66 -41
l24 -18 -46 -28 c-30 -17 -47 -34 -47 -46 0 -25 4 -24 62 11 26 17 54 30 61
30 6 0 26 11 42 24 27 22 28 25 12 31 -11 5 -25 1 -36 -9 -12 -11 -21 -13 -25
-7 -4 5 10 22 30 38 46 35 84 73 84 84 0 5 -14 9 -30 9 -46 0 -99 26 -112 55
-9 19 -9 37 0 76 7 28 12 61 12 75 0 29 15 30 54 5 17 -11 35 -17 40 -14 6 3
8 3 4 -1 -3 -4 5 -24 18 -43 17 -25 24 -50 24 -82 l0 -46 20 44 c11 23 17 48
13 54 -3 5 -2 7 4 4 14 -9 53 77 53 116 0 23 -3 28 -9 17 -6 -8 -8 -17 -6 -20
5 -8 -7 -11 -66 -14 -26 -2 -53 -7 -60 -12 -11 -6 -12 -5 -2 7 9 11 8 20 -7
39 -10 13 -15 31 -12 39 5 14 3 14 -14 0 -31 -26 -53 -30 -88 -15 -18 8 -44
12 -57 9 -24 -4 -198 65 -229 91 -13 12 -78 46 -86 46 -2 0 -22 -23 -44 -51z
m495 -139 c16 -17 16 -20 3 -15 -9 4 -19 13 -22 21 -7 19 -2 18 19 -6z"/>
<path d="M4573 6255 c-17 -7 -39 -25 -49 -39 -16 -25 -16 -28 1 -46 9 -10 36
-27 60 -37 36 -14 45 -24 55 -56 11 -38 12 -38 31 -21 15 13 22 15 31 6 9 -9
7 -16 -6 -31 -42 -47 24 -72 69 -26 31 31 34 84 5 110 -11 10 -20 30 -20 44
-1 83 -93 133 -177 96z"/>
<path d="M6961 6077 c28 -21 59 -36 59 -29 0 5 -11 14 -25 20 -24 11 -44 16
-34 9z"/>
<path d="M6926 6054 c-9 -24 -7 -56 3 -50 11 7 20 66 10 66 -4 0 -10 -7 -13
-16z"/>
<path d="M7830 5970 c-29 -44 -59 -85 -66 -91 -25 -21 -14 -44 34 -70 39 -21
55 -25 96 -20 44 5 51 9 58 36 18 62 -24 217 -54 199 -6 -4 -8 -3 -4 4 3 6 3
13 -2 16 -5 3 -32 -31 -62 -74z"/>
<path d="M6813 6028 c-15 -20 -25 -38 -20 -38 3 0 12 11 21 25 17 26 16 35 -1
13z"/>
<path d="M6990 6010 c-6 -11 -8 -20 -6 -20 3 0 10 9 16 20 6 11 8 20 6 20 -3
0 -10 -9 -16 -20z"/>
<path d="M8380 5958 c0 -23 15 -35 83 -66 5 -2 7 6 5 18 -2 13 -20 32 -45 47
l-43 25 0 -24z"/>
<path d="M8382 5849 c3 -48 5 -52 46 -76 l42 -25 0 53 c0 52 -1 55 -40 77 -21
12 -42 22 -45 22 -3 0 -5 -23 -3 -51z m76 -48 l3 -34 -33 20 c-25 14 -34 27
-36 52 l-3 34 33 -20 c25 -14 34 -27 36 -52z"/>
<path d="M6800 5864 c0 -8 5 -12 10 -9 6 3 10 10 10 16 0 5 -4 9 -10 9 -5 0
-10 -7 -10 -16z"/>
<path d="M6892 5827 c-16 -44 -15 -47 8 -47 17 0 20 7 20 40 0 49 -12 52 -28
7z"/>
<path d="M7248 5807 c-36 -21 -38 -24 -38 -76 l0 -53 43 25 c40 24 42 28 45
76 2 28 -1 51 -5 51 -4 -1 -25 -11 -45 -23z m42 -40 c0 -28 -5 -36 -35 -50
l-35 -17 0 30 c0 23 7 35 33 50 17 11 33 20 35 20 1 0 2 -15 2 -33z"/>
<path d="M7805 5747 c-26 -14 -41 -31 -43 -46 l-4 -23 42 23 c24 13 45 29 47
36 11 28 -4 31 -42 10z"/>
<path d="M7528 5720 c-47 -29 -48 -31 -48 -81 l0 -50 50 27 50 27 0 54 c0 29
-1 53 -2 53 -2 0 -24 -14 -50 -30z m42 -39 c0 -22 -8 -34 -34 -49 -38 -22 -46
-20 -46 14 0 14 11 29 33 42 43 27 47 27 47 -7z"/>
<path d="M4685 5645 c-52 -85 -106 -112 -168 -84 -14 6 -31 22 -38 35 -20 37
-32 29 -25 -17 4 -27 0 -60 -13 -103 -11 -35 -25 -99 -31 -142 -11 -79 -11
-80 43 -289 l53 -210 40 -14 c53 -18 185 -26 211 -13 17 9 21 25 27 98 6 73 5
89 -8 96 -13 7 -12 14 5 54 12 25 18 52 15 60 -5 13 -10 13 -36 -2 -16 -10
-32 -15 -36 -11 -6 6 12 24 65 64 13 9 16 33 16 116 0 94 -2 108 -23 134 -39
50 -44 71 -31 148 10 64 9 75 -7 108 l-19 36 -40 -64z"/>
<path d="M7803 5673 c-42 -24 -43 -26 -43 -78 l0 -54 45 26 c45 25 45 25 45
79 0 30 -1 54 -2 53 -2 -1 -22 -12 -45 -26z m37 -43 c0 -23 -7 -33 -30 -45
-39 -20 -40 -19 -40 13 0 19 8 32 28 44 38 23 42 22 42 -12z"/>
<path d="M4270 5612 c-47 -26 -101 -55 -121 -65 -50 -23 -99 -71 -99 -96 0
-18 6 -21 48 -21 70 0 95 26 104 110 2 20 18 33 80 65 42 22 80 43 84 48 18
18 -18 3 -96 -41z"/>
<path d="M3166 5604 c-4 -10 -1 -14 6 -12 15 5 23 28 10 28 -5 0 -13 -7 -16
-16z"/>
<path d="M8812 5473 c2 -9 9 -18 16 -21 18 -6 15 25 -4 32 -11 4 -14 1 -12
-11z"/>
<path d="M8877 5436 c-4 -11 49 -46 206 -137 117 -67 227 -131 245 -142 l34
-20 -4 23 c-2 17 -52 50 -228 152 -124 72 -230 132 -236 135 -6 2 -14 -3 -17
-11z"/>
<path d="M8802 5393 c2 -9 9 -18 16 -21 18 -6 15 25 -4 32 -11 4 -14 1 -12
-11z"/>
<path d="M8867 5356 c-4 -11 39 -41 168 -115 96 -56 179 -101 185 -101 6 0 10
7 8 16 -2 8 -77 59 -168 111 -194 112 -186 108 -193 89z"/>
<path d="M8857 5276 c-4 -11 51 -48 216 -142 122 -70 233 -134 245 -143 23
-14 24 -13 20 8 -2 19 -50 50 -228 153 -124 72 -230 132 -236 135 -6 2 -14 -3
-17 -11z"/>
<path d="M3893 5231 l-61 -39 -29 19 c-15 10 -33 19 -39 19 -7 0 -13 -45 -17
-127 -6 -120 -4 -133 28 -266 19 -77 38 -144 42 -148 4 -4 82 -51 173 -104 91
-53 182 -112 202 -132 21 -20 54 -68 75 -107 l38 -71 3 -467 3 -467 97 58 c53
32 150 89 215 126 66 37 120 73 122 79 2 6 5 59 8 117 l4 105 -41 0 c-23 -1
-45 -7 -50 -15 -13 -20 -26 5 -26 52 0 41 9 47 28 17 15 -25 37 -26 62 -2 18
17 18 17 -20 17 -47 0 -75 23 -66 53 9 26 56 45 89 36 l27 -6 0 77 c0 66 3 79
21 93 22 18 40 102 21 102 -5 0 -12 -9 -15 -20 -3 -11 -10 -20 -15 -20 -6 0
-12 61 -14 158 -3 152 -4 159 -34 223 -38 80 -88 138 -155 179 -49 30 -49 30
-49 7 0 -18 -25 -37 -136 -101 -74 -43 -138 -76 -141 -73 -3 3 -32 113 -64
244 -32 131 -63 245 -68 253 -5 8 -18 14 -30 13 -19 -3 -21 2 -21 55 0 56 -1
57 -40 80 -21 12 -45 22 -52 21 -7 0 -41 -17 -75 -38z m157 -51 c0 -12 -70
-60 -88 -60 -24 0 -7 24 34 47 43 25 54 28 54 13z m18 -164 c0 -83 -2 -87 -80
-130 l-48 -27 -1 38 c-3 112 1 127 36 161 23 21 45 32 64 32 l29 0 0 -74z
m-148 -46 l0 -90 -25 16 c-23 15 -25 22 -24 83 1 36 3 58 6 49 6 -26 20 -22
27 7 11 45 16 26 16 -65z m249 -222 c12 -50 20 -92 19 -94 -2 -1 -45 23 -96
53 -51 30 -92 56 -90 58 12 12 125 74 134 75 6 0 21 -41 33 -92z"/>
<path d="M3993 5035 c-3 -9 -3 -18 0 -21 9 -9 27 6 27 22 0 19 -19 18 -27 -1z"/>
<path d="M9475 5238 c-13 -80 -166 -1291 -163 -1299 2 -4 8 -5 15 -1 7 4 24
105 42 247 35 271 42 318 46 313 1 -2 38 -237 80 -523 43 -286 82 -526 88
-532 19 -25 29 0 23 56 -6 52 -112 760 -156 1040 l-19 125 34 270 c19 149 37
286 40 304 5 24 2 32 -9 32 -9 0 -17 -13 -21 -32z"/>
<path d="M8847 5203 c-4 -3 -7 -10 -7 -14 0 -4 93 -61 208 -127 272 -157 252
-147 252 -124 0 15 -55 51 -220 146 -120 69 -221 126 -223 126 -2 0 -7 -3 -10
-7z"/>
<path d="M2450 5121 c-54 -28 -83 -77 -77 -129 3 -24 13 -52 22 -62 22 -24 74
-26 115 -5 19 10 30 11 30 5 0 -6 5 -8 10 -5 6 3 10 15 10 26 0 24 35 23 35
-1 0 -8 4 -21 9 -29 14 -21 35 26 36 77 1 112 -95 174 -190 123z"/>
<path d="M1590 5075 c0 -20 9 -73 21 -118 l21 -82 -21 -14 c-12 -7 -21 -22
-21 -33 0 -16 3 -17 21 -7 16 8 23 8 28 0 12 -19 43 -162 38 -168 -3 -3 -21 4
-40 16 -19 11 -37 21 -41 21 -8 0 -6 -396 3 -432 l6 -27 68 39 c38 22 70 40
73 40 2 0 4 -20 4 -43 0 -30 6 -49 18 -60 21 -19 79 -22 130 -8 37 11 44 -5
13 -33 -10 -9 -26 -35 -36 -57 -17 -37 -18 -53 -6 -232 6 -106 14 -227 18
-271 l6 -78 36 -15 c67 -28 238 8 319 67 l42 30 0 161 c0 164 -22 359 -44 382
-6 7 -12 36 -14 65 -3 49 -2 52 20 52 18 0 20 2 8 10 -28 18 -59 12 -66 -15
-10 -39 -28 -49 -69 -35 -46 15 -71 51 -55 79 13 25 35 26 131 6 81 -17 81
-17 99 45 16 56 12 102 -14 146 -39 69 -48 105 -31 124 27 30 45 101 45 179
-1 126 -37 180 -179 260 -80 45 -79 45 -139 7 l-40 -25 21 -85 21 -86 -26 -27
c-33 -35 -48 -73 -48 -123 0 -38 -1 -40 -86 -90 -48 -28 -88 -49 -89 -48 -1 2
-31 117 -65 256 -34 138 -66 255 -71 258 -5 3 -9 -11 -9 -31z m639 -325 c-13
-44 -61 -100 -85 -100 -8 0 -14 -6 -14 -14 0 -23 -28 -39 -55 -32 -14 4 -40
19 -57 35 l-32 28 14 44 c8 24 15 48 15 54 0 5 8 11 17 13 11 2 19 -5 23 -21
l6 -24 80 27 c44 15 83 30 86 34 13 13 14 -4 2 -44z m-312 -446 c-3 -3 -17 -4
-31 -2 l-25 3 22 35 22 34 9 -32 c5 -18 6 -35 3 -38z"/>
<path d="M8762 5073 c2 -9 9 -18 16 -21 18 -6 15 25 -4 32 -11 4 -14 1 -12
-11z"/>
<path d="M8827 5043 c-4 -3 -7 -10 -7 -14 0 -5 356 -215 453 -266 4 -2 7 4 7
15 0 14 -54 50 -220 145 -121 70 -221 127 -223 127 -2 0 -7 -3 -10 -7z"/>
<path d="M8752 4993 c2 -9 9 -18 16 -21 18 -6 15 25 -4 32 -11 4 -14 1 -12
-11z"/>
<path d="M8817 4963 c-4 -3 -7 -10 -7 -14 0 -5 356 -215 453 -266 4 -2 7 5 7
16 0 15 -50 48 -220 145 -121 69 -221 126 -223 126 -2 0 -7 -3 -10 -7z"/>
<path d="M8742 4913 c2 -9 9 -18 16 -21 18 -6 15 25 -4 32 -11 4 -14 1 -12
-11z"/>
<path d="M8805 4880 c-4 -6 -4 -14 -1 -18 4 -3 113 -68 244 -143 174 -100 238
-133 240 -122 2 8 0 19 -5 23 -9 9 -440 259 -459 267 -7 2 -15 -1 -19 -7z"/>
<path d="M2526 4799 c-3 -12 -9 -56 -32 -246 -8 -67 1 -103 26 -103 18 0 19
10 22 173 3 153 -3 218 -16 176z"/>
<path d="M8722 4754 c1 -9 9 -19 16 -22 9 -3 13 2 10 14 -1 9 -9 19 -16 22 -9
3 -13 -2 -10 -14z"/>
<path d="M6408 4733 c6 -2 12 -11 12 -18 0 -29 -100 -69 -114 -46 -14 22 -26
10 -26 -23 0 -61 55 -61 141 0 80 58 87 95 16 93 -23 0 -36 -3 -29 -6z"/>
<path d="M8785 4719 c-4 -6 -4 -13 0 -17 3 -4 113 -68 243 -143 179 -103 238
-132 241 -121 2 9 -5 22 -15 29 -23 17 -452 263 -458 263 -3 0 -8 -5 -11 -11z"/>
<path d="M8712 4673 c2 -9 9 -18 16 -21 18 -6 15 25 -4 32 -11 4 -14 1 -12
-11z"/>
<path d="M8770 4636 c0 -8 99 -71 223 -142 122 -70 233 -134 245 -143 23 -14
24 -13 20 9 -2 19 -47 49 -233 156 -126 73 -236 133 -242 134 -7 0 -13 -6 -13
-14z"/>
<path d="M5092 4625 c-45 -20 -82 -63 -82 -96 0 -37 38 -62 104 -69 60 -6 64
-25 5 -24 -29 1 -36 -2 -25 -8 9 -5 16 -13 16 -18 0 -13 -37 -13 -43 0 -3 6
-4 5 -3 -2 4 -19 45 -22 52 -4 3 9 17 16 30 16 33 0 33 -44 0 -66 -23 -15 -27
-14 -63 10 -21 14 -43 26 -49 26 -7 0 -14 6 -17 13 -3 8 -15 2 -36 -18 -33
-32 -51 -97 -51 -185 0 -36 5 -51 24 -67 22 -20 24 -31 31 -157 4 -74 4 -155
1 -179 -7 -46 14 -212 40 -310 15 -57 14 -59 -20 -170 -36 -118 -57 -237 -76
-427 -19 -195 -19 -198 -46 -219 -14 -11 -42 -25 -62 -32 -20 -6 -43 -16 -49
-22 -21 -16 -15 -55 9 -68 26 -14 145 -7 203 13 l40 13 6 65 c3 36 15 97 27
135 29 99 52 217 58 305 6 75 20 130 34 130 10 0 84 -87 159 -190 59 -79 62
-87 56 -125 -3 -22 -10 -42 -16 -43 -5 -2 -16 -17 -24 -33 -14 -27 -14 -29 10
-45 32 -21 84 -12 113 19 24 26 72 124 72 149 0 9 -11 29 -23 45 -13 15 -40
65 -59 110 -20 46 -64 130 -98 188 -34 58 -61 107 -59 109 2 2 18 11 36 20 34
17 51 52 35 68 -8 8 -19 6 -37 -6 -15 -10 -29 -15 -32 -12 -10 9 28 46 75 73
l42 25 -6 157 c-3 86 -10 169 -16 184 -11 29 -1 46 28 47 7 0 26 13 43 29 18
17 32 24 35 17 2 -6 5 45 5 114 1 96 -3 131 -14 147 -8 11 -62 49 -121 83 -93
55 -105 64 -99 83 4 12 9 47 12 77 4 47 2 59 -18 84 -23 29 -75 56 -106 56
-10 -1 -33 -7 -51 -15z m134 -211 c-4 -13 -2 -24 4 -24 5 0 16 -13 25 -29 11
-22 12 -37 5 -56 -17 -45 -97 -64 -137 -32 -10 7 -3 17 27 38 29 21 40 37 41
57 3 53 4 57 12 70 13 20 29 2 23 -24z m-172 -50 c9 -3 16 -12 16 -20 0 -12
-4 -12 -20 -2 -30 19 -27 34 4 22z m329 -760 c8 -9 -11 -44 -23 -44 -6 0 -10
8 -10 18 0 27 18 41 33 26z"/>
<path d="M6823 4533 c10 -17 -13 -29 -80 -43 -55 -11 -65 -11 -88 4 l-25 16 0
-33 c0 -18 5 -38 12 -45 20 -20 98 -13 177 16 74 27 105 52 86 71 -14 14 -89
26 -82 14z"/>
<path d="M5029 4456 c13 -15 13 -19 0 -27 -16 -10 -8 -12 15 -3 22 8 20 17 -6
33 -21 13 -22 13 -9 -3z"/>
<path d="M8615 4288 c-3 -18 -23 -177 -45 -353 -22 -176 -43 -330 -46 -343 -4
-21 19 -43 32 -29 3 3 25 158 49 344 24 186 46 351 48 366 3 19 -2 31 -14 38
-15 8 -19 4 -24 -23z"/>
<path d="M8890 4157 c0 -41 52 -343 60 -351 7 -7 13 -7 20 0 7 7 2 63 -15 174
-14 90 -26 164 -28 165 -1 0 -10 7 -19 14 -15 11 -18 11 -18 -2z"/>
<path d="M3805 4045 c-27 -13 -111 -59 -185 -102 l-135 -79 0 -244 0 -244 170
-99 c93 -54 193 -112 222 -128 l53 -30 0 451 0 451 -25 24 c-30 31 -38 31
-100 0z"/>
<path d="M6470 3998 c1 -19 34 -42 202 -138 110 -63 269 -154 352 -202 83 -49
153 -88 156 -88 3 0 6 8 7 18 1 14 -57 52 -230 153 -127 73 -241 139 -252 145
-11 6 -56 32 -100 58 -44 27 -92 54 -107 62 -27 14 -28 13 -28 -8z"/>
<path d="M6160 3750 c0 -121 -4 -220 -8 -220 -5 0 -19 11 -32 25 -22 23 -25
24 -42 8 -10 -9 -18 -19 -18 -23 0 -4 23 -37 50 -73 l50 -66 0 -266 c0 -262 0
-266 20 -255 19 10 20 23 22 245 l3 235 35 -28 c19 -16 76 -52 125 -80 140
-79 130 -65 100 -145 -31 -84 -26 -113 23 -134 l35 -14 -8 -77 c-4 -42 -8
-102 -8 -132 -2 -50 0 -55 18 -51 11 2 44 5 72 8 61 6 77 -12 50 -55 l-15 -26
71 -42 c40 -22 86 -49 104 -60 17 -10 35 -15 39 -11 4 4 10 47 12 95 3 78 1
92 -21 133 l-25 46 31 31 c30 31 31 33 35 149 5 132 -6 188 -42 224 -19 19
-24 37 -28 89 -3 47 -10 75 -26 97 -14 20 -22 46 -22 73 0 23 -5 50 -10 61
-23 41 -106 62 -162 40 -13 -5 -43 -28 -67 -50 -40 -38 -43 -44 -38 -78 4 -20
13 -44 22 -52 13 -14 15 -12 15 22 0 32 3 37 24 37 13 0 43 -16 66 -35 46 -38
51 -40 67 -24 14 14 36 1 29 -17 -3 -8 6 -30 19 -50 14 -20 25 -43 25 -50 0
-21 -51 -54 -84 -54 -39 0 -56 16 -56 52 0 24 -4 28 -30 28 -23 0 -33 6 -42
25 -7 15 -20 25 -32 25 -41 0 -212 75 -259 114 l-47 38 0 234 c0 223 -1 234
-20 244 -20 11 -20 8 -20 -210z"/>
<path d="M9250 3938 c0 -7 -21 -174 -46 -372 -25 -197 -42 -362 -37 -367 4 -4
13 -5 19 -1 13 8 108 727 99 742 -9 14 -35 12 -35 -2z"/>
<path d="M6470 3911 c0 -21 11 -28 260 -171 80 -46 194 -112 254 -147 59 -34
110 -63 113 -63 2 0 3 10 1 22 -2 18 -67 60 -308 199 -168 98 -308 178 -312
178 -5 1 -8 -8 -8 -18z"/>
<path d="M5498 3758 c-4 -66 -13 -126 -27 -165 -21 -63 -26 -93 -15 -93 4 0
24 10 45 22 l39 22 -2 155 c-3 134 -5 156 -19 159 -14 2 -17 -13 -21 -100z"/>
<path d="M7220 2798 l0 -566 -39 -31 c-22 -18 -43 -31 -48 -30 -4 1 -12 0 -18
-1 -5 -1 -16 -3 -24 -4 -23 -2 -44 -75 -33 -113 10 -32 9 -32 -57 -71 -36 -22
-76 -45 -89 -51 -21 -11 -45 1 -260 125 -480 278 -512 295 -523 288 -8 -4 -9
-3 -5 4 4 6 -6 18 -23 27 -38 19 -36 20 -38 -18 -3 -32 -2 -33 230 -167 127
-73 317 -183 420 -243 l188 -110 -3 -352 -3 -351 140 81 c77 45 161 94 188
109 l47 28 0 353 c0 301 2 354 15 365 9 7 15 29 15 54 0 23 9 75 20 115 12 40
18 76 15 80 -4 3 -20 -2 -36 -12 -17 -9 -34 -17 -38 -17 -4 0 -9 235 -10 523
-2 439 -4 524 -17 537 -12 12 -14 -58 -14 -552z"/>
<path d="M5810 3063 c-59 -22 -86 -87 -71 -170 13 -72 44 -103 100 -103 47 0
66 20 63 66 -3 35 6 42 26 22 9 -9 12 -6 12 15 0 15 10 41 21 57 20 26 21 32
9 60 -7 17 -25 37 -41 45 -28 15 -90 19 -119 8z"/>
<path d="M1873 3003 c-4 -10 -7 -44 -8 -76 0 -50 4 -62 24 -78 29 -24 36 -24
61 1 15 15 20 32 19 73 -1 28 -4 42 -6 31 -6 -30 -37 -56 -57 -48 -20 7 -30
43 -24 84 5 34 1 39 -9 13z"/>
<path d="M6082 2669 c-17 -73 -17 -73 37 -42 27 15 49 33 49 38 0 6 -17 20
-38 32 l-37 22 -11 -50z"/>
<path d="M5571 2555 c-1 -33 3 -87 9 -119 5 -33 10 -86 11 -118 1 -33 6 -55
10 -51 16 17 11 160 -9 253 l-20 95 -1 -60z"/>
<path d="M6440 2558 c0 -39 59 -241 72 -250 59 -39 347 -198 358 -198 28 1
175 97 171 111 -2 8 -5 36 -7 64 l-2 50 -120 68 -120 68 -39 -19 -39 -20 -127
74 c-71 41 -132 74 -138 74 -5 0 -9 -10 -9 -22z m495 -185 c41 -20 42 -24 14
-42 -18 -11 -27 -10 -60 5 -43 19 -48 28 -21 43 23 14 26 14 67 -6z m-295 -18
c16 -19 3 -40 -16 -24 -15 13 -19 39 -5 39 5 0 14 -7 21 -15z m270 -62 c54
-31 97 -60 94 -65 -3 -4 -19 -15 -35 -23 -28 -15 -32 -14 -86 17 -48 28 -58
39 -69 78 -8 25 -14 46 -14 48 0 7 19 -3 110 -55z m-40 -95 c0 -13 -23 -5 -28
10 -2 7 2 10 12 6 9 -3 16 -11 16 -16z m40 -28 c0 -5 -2 -10 -4 -10 -3 0 -8 5
-11 10 -3 6 -1 10 4 10 6 0 11 -4 11 -10z"/>
<path d="M7423 2550 c-43 -26 -67 -64 -59 -94 7 -29 60 -56 110 -56 32 0 36
-3 36 -25 0 -30 20 -33 27 -5 8 31 36 26 30 -5 -7 -37 14 -26 29 16 19 51 16
100 -6 137 -33 54 -108 69 -167 32z"/>
<path d="M6318 2543 c7 -3 16 -2 19 1 4 3 -2 6 -13 5 -11 0 -14 -3 -6 -6z"/>
<path d="M8037 2543 c-3 -4 95 -65 217 -135 519 -297 506 -289 506 -314 0 -13
5 -24 11 -24 6 0 9 14 7 33 -3 30 -12 37 -160 122 l-157 90 -3 49 c-3 44 -7
52 -35 69 -24 13 -37 16 -50 9 -16 -9 -14 -12 15 -29 24 -13 32 -25 32 -46 0
-26 -1 -27 -22 -14 -52 32 -325 187 -340 192 -9 4 -18 3 -21 -2z"/>
<path d="M946 2520 c-65 -20 -104 -93 -91 -171 8 -47 39 -89 66 -89 17 0 19 5
13 35 -5 31 -4 35 15 35 11 0 21 -4 21 -10 0 -20 21 -10 30 14 6 17 20 27 43
31 44 9 97 40 97 59 0 20 -38 64 -68 80 -38 19 -92 26 -126 16z"/>
<path d="M4468 2504 c-27 -14 -58 -60 -58 -85 0 -6 -13 -27 -30 -45 -20 -24
-31 -49 -36 -84 -6 -47 -9 -52 -58 -80 -80 -45 -90 -60 -93 -143 l-3 -72 22
30 c35 46 94 105 106 105 5 0 20 -9 33 -19 19 -15 24 -29 24 -66 0 -47 -1 -49
-85 -125 l-84 -78 26 -40 c15 -22 44 -50 65 -63 21 -12 40 -24 42 -26 3 -2 -7
-16 -22 -31 -48 -50 -58 -118 -37 -248 7 -41 7 -79 0 -115 l-11 -54 40 -37
c81 -77 255 -92 362 -31 30 16 64 44 75 61 l22 32 -23 57 c-13 32 -29 96 -35
143 -7 47 -23 130 -36 185 -37 153 -32 205 19 221 46 13 56 49 32 121 -10 32
-20 92 -23 133 -2 41 -11 88 -19 104 l-15 28 -16 -23 c-21 -31 -32 -39 -59
-39 -18 0 -23 -6 -23 -28 0 -37 -17 -52 -56 -52 -38 0 -94 42 -94 70 0 10 12
31 28 47 15 16 26 37 24 45 -4 21 17 33 31 19 18 -18 38 -13 76 22 20 17 49
42 65 53 28 20 29 23 16 54 -7 18 -27 41 -44 51 -37 23 -110 24 -148 3z"/>
<path d="M5886 2303 l-9 -113 -39 0 c-47 0 -103 27 -146 71 l-31 32 -11 -27
c-13 -34 -20 -141 -24 -351 -2 -88 -9 -180 -14 -206 -19 -80 -25 -201 -17
-383 7 -175 8 -178 31 -188 24 -11 48 -4 104 31 30 19 83 41 88 36 3 -3 5 -41
4 -85 -1 -77 0 -81 25 -93 20 -9 33 -8 67 5 22 9 66 25 96 37 53 20 90 51 90
75 0 32 -29 51 -77 50 l-48 0 3 105 c2 64 8 110 15 117 7 6 77 53 157 104 80
51 149 98 153 104 9 13 -2 292 -14 323 -13 36 -44 38 -92 4 -35 -23 -47 -27
-57 -18 -10 10 -10 7 0 -11 6 -13 9 -34 6 -46 -7 -27 -60 -59 -86 -51 -23 7
-25 16 -7 34 10 10 7 16 -12 30 -16 13 -22 25 -19 39 3 11 -2 33 -11 49 -10
15 -35 69 -56 118 -32 75 -40 109 -50 205 l-11 115 -8 -112z m-68 -678 c-6
-22 -12 -100 -13 -174 l-3 -135 -27 -3 -27 -4 7 88 c11 149 24 269 37 325 l12
53 12 -55 c10 -42 11 -65 2 -95z m306 48 c-11 -78 -33 -93 -59 -40 -16 32 -16
32 17 60 18 15 36 27 41 27 4 0 5 -21 1 -47z"/>
<path d="M1705 2348 c-27 -17 -108 -64 -180 -105 -71 -41 -133 -78 -138 -82
-4 -4 4 -28 18 -53 21 -38 29 -44 50 -40 28 5 32 -4 10 -28 -13 -14 -9 -29 35
-139 114 -280 185 -617 211 -995 6 -88 14 -191 17 -228 l7 -68 193 113 194
112 -7 140 c-8 144 -15 191 -15 92 l0 -56 -144 -86 c-80 -47 -147 -85 -150
-85 -4 0 -6 32 -6 70 0 57 -4 74 -20 90 l-21 21 31 17 c31 17 31 18 29 95 l-2
79 100 59 c117 70 132 70 134 -2 2 -69 1 -67 28 -85 l24 -17 -7 74 c-9 95 -46
343 -52 349 -3 2 -4 -24 -2 -58 l3 -63 -144 -85 c-79 -47 -145 -83 -147 -81
-2 2 -8 37 -14 78 -8 54 -16 78 -30 89 -20 15 -19 16 16 35 35 19 36 20 30 65
-4 25 -9 65 -12 90 l-6 45 101 58 c56 33 108 57 115 54 8 -3 17 -28 20 -59 12
-92 16 -106 37 -111 11 -3 19 -14 20 -29 1 -17 2 -19 6 -5 7 25 -61 289 -109
423 -42 120 -146 337 -163 340 -5 2 -32 -11 -60 -28z m113 -161 c20 -67 26
-76 49 -79 23 -3 29 -12 55 -88 27 -80 27 -86 11 -98 -24 -18 -277 -162 -285
-162 -3 0 -16 36 -28 81 -17 60 -29 83 -44 89 -20 7 -19 8 10 26 l32 19 -25
80 c-16 49 -22 84 -17 92 12 18 196 123 209 119 5 -1 20 -37 33 -79z"/>
<path d="M2432 2343 c-35 -17 -62 -58 -62 -93 0 -12 11 -31 25 -44 14 -13 25
-31 25 -41 0 -14 3 -15 15 -5 21 17 35 3 35 -35 0 -50 30 -54 107 -16 51 26
61 35 67 62 13 67 -15 144 -64 173 -36 20 -105 20 -148 -1z"/>
<path d="M7580 2295 c0 -46 -101 -99 -116 -60 -11 27 -36 17 -32 -12 2 -16 8
-27 14 -26 7 1 20 -7 29 -17 26 -29 37 -25 89 30 49 52 55 70 31 90 -12 10
-15 9 -15 -5z"/>
<path d="M7677 2162 c-29 -32 -39 -76 -44 -204 l-6 -127 -85 -91 c-61 -65 -81
-94 -74 -103 5 -6 11 -20 13 -30 4 -15 12 -13 66 19 70 42 145 101 174 139 24
29 46 140 55 267 6 86 5 95 -16 121 -25 31 -59 35 -83 9z"/>
<path d="M1006 2101 c-3 -4 -1 -46 4 -92 5 -46 11 -101 12 -122 3 -35 4 -37
22 -24 18 13 18 16 -3 115 -12 56 -19 106 -16 111 3 5 1 12 -4 15 -5 4 -12 2
-15 -3z"/>
<path d="M2621 2089 c-13 -10 -45 -27 -72 -36 -30 -11 -49 -24 -49 -33 0 -8
-29 -35 -65 -59 -35 -24 -73 -52 -85 -63 -11 -10 -25 -16 -32 -12 -7 5 -8 3
-2 -7 8 -13 7 -149 -1 -158 -2 -2 -11 4 -20 13 -25 24 -54 20 -61 -9 -21 -84
65 -235 134 -235 l25 0 -9 -132 c-11 -169 -9 -237 15 -373 11 -60 22 -168 25
-240 4 -71 9 -175 13 -229 l6 -99 -31 6 c-66 13 -117 -27 -92 -73 13 -24 67
-60 90 -60 8 0 37 -11 64 -25 54 -27 77 -30 106 -15 17 9 19 22 19 96 -1 90 2
103 23 87 7 -6 24 -14 37 -18 12 -4 39 -18 58 -31 37 -25 77 -31 102 -15 11 7
14 60 15 272 1 224 -2 275 -17 334 -12 47 -16 86 -12 120 4 28 -1 147 -10 264
-9 117 -13 226 -10 242 4 17 17 36 30 45 61 40 77 301 25 404 -23 45 -40 52
-118 49 -32 -1 -63 0 -68 3 -5 4 -20 -2 -33 -13z m23 -1191 c9 -58 19 -160 23
-227 l6 -121 -29 0 -29 0 -1 143 c0 78 -5 159 -11 179 -12 40 5 170 19 145 3
-7 14 -60 22 -119z"/>
<path d="M2177 1934 c-72 -37 -73 -40 -32 -89 10 -12 9 -6 -4 16 l-20 35 68
34 c41 19 74 30 81 25 9 -5 11 -4 6 3 -11 18 -25 14 -99 -24z"/>
<path d="M8492 1958 c-28 -28 -3 -119 46 -171 51 -54 116 -73 142 -42 34 40
-17 165 -83 205 -36 22 -87 26 -105 8z"/>
<path d="M2197 1888 c7 -37 10 -44 19 -35 9 8 -6 67 -17 67 -4 0 -6 -15 -2
-32z"/>
<path d="M8132 1824 c3 -17 566 -349 575 -340 14 13 -12 37 -84 78 -43 24
-169 97 -281 161 -111 64 -205 117 -208 117 -3 0 -4 -7 -2 -16z"/>
<path d="M8132 1730 c2 -17 56 -53 243 -161 132 -76 243 -139 248 -139 4 0 7
8 7 19 0 14 -61 54 -241 157 -133 77 -246 141 -251 143 -5 2 -8 -7 -6 -19z"/>
<path d="M8132 1633 c3 -18 565 -349 575 -339 3 3 3 11 0 18 -4 11 -558 338
-573 338 -3 0 -4 -8 -2 -17z"/>
<path d="M1129 1595 c-34 -35 -143 -73 -227 -81 -61 -5 -70 -4 -104 19 -46 32
-52 22 -42 -84 7 -85 1 -108 -22 -84 -29 28 -34 15 -34 -81 0 -93 1 -97 29
-123 43 -40 51 -127 21 -213 -32 -88 -37 -240 -15 -378 10 -58 20 -124 22
-148 3 -27 13 -48 27 -60 12 -9 32 -31 44 -49 41 -58 158 -81 200 -39 21 21 7
48 -48 90 -28 21 -55 46 -60 55 -4 9 -9 97 -9 196 -1 184 16 318 53 420 9 22
15 52 16 67 0 15 4 29 9 32 5 4 7 -67 4 -171 -5 -146 -2 -193 12 -263 10 -47
20 -104 22 -127 5 -40 8 -43 84 -88 43 -25 92 -50 108 -55 56 -16 125 18 105
52 -3 5 -30 25 -60 44 -91 58 -89 52 -88 334 0 135 4 325 9 423 5 127 4 177
-3 177 -7 0 -10 11 -7 28 3 15 0 51 -7 80 l-13 53 -26 -26z m-382 -357 c-3 -7
-5 -2 -5 12 0 14 2 19 5 13 2 -7 2 -19 0 -25z"/>
<path d="M7315 1586 c-4 -21 -4 -106 1 -190 4 -83 8 -255 8 -383 1 -263 1
-263 -84 -313 -57 -34 -70 -54 -47 -77 28 -29 93 -23 151 12 26 17 62 37 80
46 25 14 32 25 38 60 3 24 14 87 23 139 14 75 16 127 11 248 -4 100 -3 152 4
152 5 0 10 -13 10 -30 0 -16 7 -49 14 -72 38 -111 49 -201 48 -388 l0 -185
-62 -56 c-72 -64 -76 -89 -19 -103 67 -16 108 0 172 67 40 42 57 68 57 87 0
15 7 73 16 131 21 138 15 293 -15 369 -19 50 -20 62 -10 140 8 68 10 350 2
350 -1 0 -19 -11 -39 -25 -49 -33 -93 -40 -175 -26 -61 10 -73 9 -95 -5 -24
-16 -26 -16 -46 3 -11 11 -23 36 -28 54 l-7 34 -8 -39z"/>
<path d="M8132 1539 c2 -17 67 -59 278 -182 151 -87 281 -162 288 -165 10 -3
13 2 10 18 -2 18 -62 56 -286 186 -156 90 -286 164 -288 164 -3 0 -4 -10 -2
-21z"/>
<path d="M8132 1443 c2 -11 76 -60 188 -125 102 -59 189 -107 193 -108 5 0 7
7 5 16 -2 13 -365 234 -384 234 -3 0 -4 -8 -2 -17z"/>
<path d="M533 1420 c-25 -10 -39 -60 -24 -88 14 -25 66 -35 100 -19 22 11 26
19 25 51 -1 20 -5 41 -10 46 -15 13 -68 20 -91 10z"/>
<path d="M8130 1148 l0 -194 128 -74 c70 -41 137 -80 150 -88 l22 -14 0 198
-1 199 -140 80 c-77 44 -144 82 -149 83 -6 2 -10 -71 -10 -190z"/>
<path d="M276 1268 c-36 -50 -9 -98 53 -98 46 0 70 24 65 63 -4 42 -22 57 -65
57 -28 0 -42 -6 -53 -22z"/>
<path d="M460 1151 c0 -80 3 -103 18 -121 33 -41 140 -43 182 -5 17 16 20 32
20 122 l0 103 -23 -15 c-42 -27 -111 -30 -156 -6 l-41 21 0 -99z m138 17 c16
-16 15 -63 -2 -77 -7 -6 -24 -10 -38 -9 -20 2 -25 8 -26 34 -4 49 37 81 66 52z"/>
<path d="M1475 1034 c-88 -52 -166 -98 -173 -102 -7 -5 61 -50 184 -121 108
-62 197 -111 199 -109 4 3 -9 210 -21 351 -4 47 -11 77 -18 76 -6 0 -83 -43
-171 -95z"/>
<path d="M220 1023 c0 -56 3 -109 6 -118 22 -55 175 -59 204 -5 6 10 10 65 10
121 0 96 -1 101 -17 87 -31 -28 -84 -36 -137 -23 -26 7 -52 19 -57 26 -5 9 -9
-26 -9 -88z m139 3 c6 -7 10 -29 9 -47 -3 -32 -5 -34 -38 -34 -30 0 -35 4 -37
25 -4 47 6 70 31 70 13 0 29 -6 35 -14z"/>
<path d="M4212 1007 c-30 -32 -28 -53 14 -137 42 -85 73 -120 109 -120 35 0
40 21 19 77 -21 58 -34 75 -34 45 0 -33 -26 -17 -50 32 -11 23 -20 61 -20 84
0 48 -8 52 -38 19z"/>
<path d="M8040 862 c0 -5 75 -52 168 -105 92 -53 253 -145 357 -205 l190 -110
3 -46 c4 -63 22 -58 22 7 l-1 52 -142 81 c-78 45 -240 139 -360 208 -120 69
-222 126 -228 126 -5 0 -9 -4 -9 -8z"/>
<path d="M8100 630 c-72 -43 -87 -47 -116 -25 -26 20 -34 19 -31 -6 2 -11 18
-29 35 -39 l31 -19 90 51 c71 41 88 55 79 65 -14 18 -14 18 -88 -27z"/>
<path d="M4610 548 c0 -31 9 -42 53 -72 82 -56 147 -72 175 -44 21 21 13 37
-40 76 -74 54 -87 60 -55 25 16 -17 24 -33 19 -37 -15 -9 -74 14 -114 46 -38
29 -38 29 -38 6z"/>
<path d="M8818 532 c-17 -10 -28 -26 -28 -39 0 -22 1 -22 30 -5 19 11 30 25
30 40 0 12 -1 22 -2 21 -2 0 -15 -8 -30 -17z"/>
<path d="M8536 368 c-68 -40 -69 -40 -102 -24 -32 15 -34 15 -34 -3 0 -11 14
-27 33 -39 l34 -19 93 54 c67 40 89 58 79 64 -22 13 -29 11 -103 -33z"/>
</g>
</svg>
